<?xml version="1.0" encoding="UTF-8"?>
<!DOCTYPE svg PUBLIC "-//W3C//DTD SVG 1.1//EN" "http://www.w3.org/Graphics/SVG/1.1/DTD/svg11.dtd">
<svg xmlns="http://www.w3.org/2000/svg" version="1.1" width="32px" height="32px" style="shape-rendering:geometricPrecision; text-rendering:geometricPrecision; image-rendering:optimizeQuality; fill-rule:evenodd; clip-rule:evenodd" xmlns:xlink="http://www.w3.org/1999/xlink">
<g><path style="opacity:0.561" fill="#c60009" d="M -0.5,26.5 C -0.5,25.8333 -0.5,25.1667 -0.5,24.5C 0.869876,24.1435 1.86988,23.3102 2.5,22C 0.366702,7.29052 6.70004,0.957183 21.5,3C 33.041,11.2721 33.3744,19.9388 22.5,29C 18.1667,29.6667 13.8333,29.6667 9.5,29C 7.69506,28.028 6.02839,26.8613 4.5,25.5C 2.92908,26.3094 1.26241,26.6427 -0.5,26.5 Z M 16.5,27.5 C 19.4328,25.3548 22.4328,23.1882 25.5,21C 23.7885,18.4807 21.4552,16.9807 18.5,16.5C 20.1513,15.0299 21.9847,13.6966 24,12.5C 23.7395,9.88302 22.2395,8.04968 19.5,7C 16.1832,6.50166 12.8499,6.33499 9.5,6.5C 23.5126,2.67587 29.0126,8.00921 26,22.5C 23.7146,25.8922 20.548,27.5589 16.5,27.5 Z M 9.5,6.5 C 9.40594,10.1358 8.73927,13.6358 7.5,17C 8.16667,17.3333 8.83333,17.6667 9.5,18C 7.90952,19.0458 6.40952,20.2125 5,21.5C 2.92192,15.4876 4.42192,10.4876 9.5,6.5 Z M 12.5,15.5 C 12.289,9.94138 14.6223,8.44138 19.5,11C 17.4494,13.0202 15.1161,14.5202 12.5,15.5 Z M 14.5,19.5 C 15.1834,21.1765 16.5168,21.8432 18.5,21.5C 16.0117,23.2553 13.6784,25.2553 11.5,27.5C 9.83333,26.3333 8.16667,25.1667 6.5,24C 9.32887,22.6443 11.9955,21.1443 14.5,19.5 Z"/></g>
</svg>
