<?xml version="1.0" encoding="UTF-8"?>
<!DOCTYPE svg PUBLIC "-//W3C//DTD SVG 1.1//EN" "http://www.w3.org/Graphics/SVG/1.1/DTD/svg11.dtd">
<svg xmlns="http://www.w3.org/2000/svg" version="1.1" width="124px" height="36px" style="shape-rendering:geometricPrecision; text-rendering:geometricPrecision; image-rendering:optimizeQuality; fill-rule:evenodd; clip-rule:evenodd" xmlns:xlink="http://www.w3.org/1999/xlink">
<g><path style="opacity:0.562" fill="#c60009" d="M 13.5,4.5 C 29.7866,3.13786 35.62,10.1379 31,25.5C 29.8333,26.6667 28.6667,27.8333 27.5,29C 22.6178,30.5547 17.6178,30.888 12.5,30C 11,29.1667 9.83333,28 9,26.5C 7.18623,27.7596 5.35289,27.7596 3.5,26.5C 5.01159,25.7506 6.01159,24.584 6.5,23C 4.23537,15.0383 6.56871,8.87167 13.5,4.5 Z M 28.5,23.5 C 27.5738,20.9051 25.9071,18.9051 23.5,17.5C 24.9448,15.9373 26.6115,14.604 28.5,13.5C 24.6315,8.91753 19.6315,7.25086 13.5,8.5C 20.5071,4.74471 26.0071,6.41137 30,13.5C 30.6667,16.5 30.6667,19.5 30,22.5C 29.6174,23.056 29.1174,23.3893 28.5,23.5 Z M 13.5,8.5 C 13.2181,11.9097 12.5514,15.243 11.5,18.5C 11.7093,19.086 12.0426,19.586 12.5,20C 9.36096,23.7343 7.6943,23.0676 7.5,18C 8.07786,16.1886 8.57786,14.3553 9,12.5C 9.87627,10.3645 11.3763,9.03118 13.5,8.5 Z M 15.5,17.5 C 16.3414,15.6208 16.6747,13.6208 16.5,11.5C 18.7505,11.1814 20.7505,11.6814 22.5,13C 20.4494,15.0202 18.1161,16.5202 15.5,17.5 Z M 17.5,21.5 C 18.0577,22.7899 19.0577,23.6232 20.5,24C 18.9991,25.2515 17.3325,26.2515 15.5,27C 16.056,27.3826 16.3893,27.8826 16.5,28.5C 14.3551,28.2623 12.6885,27.2623 11.5,25.5C 13.1764,23.6631 15.1764,22.3298 17.5,21.5 Z M 28.5,23.5 C 28.0844,25.7525 26.751,27.2525 24.5,28C 21.7346,29.4764 19.0679,29.6431 16.5,28.5C 17.8734,28.6567 19.2068,28.49 20.5,28C 23.0594,26.2226 25.7261,24.7226 28.5,23.5 Z"/></g>
<g><path style="opacity:0.618" fill="#fefffe" d="M 40.5,12.5 C 43.5184,12.3354 46.5184,12.502 49.5,13C 50.9827,15.3815 51.816,17.8815 52,20.5C 52.2256,17.905 52.7256,15.405 53.5,13C 56.8168,12.5017 60.1501,12.335 63.5,12.5C 63.5,13.5 63.5,14.5 63.5,15.5C 60.7531,15.1866 58.0865,15.52 55.5,16.5C 57.7427,17.4742 60.076,17.8076 62.5,17.5C 62.5,18.5 62.5,19.5 62.5,20.5C 60.1432,20.3367 57.8098,20.5034 55.5,21C 58.146,21.4974 60.8127,21.6641 63.5,21.5C 63.5,22.5 63.5,23.5 63.5,24.5C 55.5718,23.7617 47.5718,23.7617 39.5,24.5C 39.2367,20.3998 39.5701,16.3998 40.5,12.5 Z M 43.5,15.5 C 45.1992,15.3398 46.8659,15.5065 48.5,16C 46.4153,18.1391 44.7487,17.9725 43.5,15.5 Z"/></g>
<g><path style="opacity:0.621" fill="#fefffe" d="M 64.5,12.5 C 65.5,12.5 66.5,12.5 67.5,12.5C 67.5,16.5 67.5,20.5 67.5,24.5C 66.5,24.5 65.5,24.5 64.5,24.5C 64.5,20.5 64.5,16.5 64.5,12.5 Z"/></g>
<g><path style="opacity:0.649" fill="#fefffe" d="M 70.5,12.5 C 73.8333,12.5 77.1667,12.5 80.5,12.5C 80.5,13.5 80.5,14.5 80.5,15.5C 77.8127,15.3359 75.146,15.5026 72.5,16C 71.5939,17.6995 71.2606,19.5328 71.5,21.5C 73.5273,21.6621 75.5273,21.4955 77.5,21C 75.8659,20.5065 74.1992,20.3398 72.5,20.5C 72.5,19.5 72.5,18.5 72.5,17.5C 75.1667,17.5 77.8333,17.5 80.5,17.5C 80.5,19.8333 80.5,22.1667 80.5,24.5C 68.584,27.2638 65.2507,23.2638 70.5,12.5 Z"/></g>
<g><path style="opacity:0.619" fill="#fefffe" d="M 84.5,12.5 C 94.0241,11.7317 96.6908,15.565 92.5,24C 84.2429,26.9601 80.7429,24.1267 82,15.5C 82.6979,14.3094 83.5313,13.3094 84.5,12.5 Z M 85.5,15.5 C 90.5,14.5 92.5,16.5 91.5,21.5C 85.5907,22.9256 83.5907,20.9256 85.5,15.5 Z"/></g>
<g><path style="opacity:0.669" fill="#fefffe" d="M 95.5,12.5 C 96.552,12.3505 97.552,12.5172 98.5,13C 100.679,14.8482 102.513,17.0148 104,19.5C 104.497,17.1902 104.663,14.8568 104.5,12.5C 105.5,12.5 106.5,12.5 107.5,12.5C 107.666,16.5138 107.499,20.5138 107,24.5C 106.667,24.8333 106.333,25.1667 106,25.5C 103.667,23.1667 101.333,20.8333 99,18.5C 98.5045,20.4727 98.3379,22.4727 98.5,24.5C 97.5,24.5 96.5,24.5 95.5,24.5C 95.5,20.5 95.5,16.5 95.5,12.5 Z"/></g>
<g><path style="opacity:0.601" fill="#fefffe" d="M 108.5,12.5 C 109.5,12.5 110.5,12.5 111.5,12.5C 111.34,14.1992 111.506,15.8659 112,17.5C 114.506,15.1365 117.339,13.4698 120.5,12.5C 119.836,14.8669 118.503,16.8669 116.5,18.5C 117.833,20.1667 119.167,21.8333 120.5,23.5C 119.277,24.6139 117.944,24.7805 116.5,24C 115,22.5 113.5,21 112,19.5C 111.506,21.1341 111.34,22.8008 111.5,24.5C 110.5,24.5 109.5,24.5 108.5,24.5C 108.5,20.5 108.5,16.5 108.5,12.5 Z"/></g>
</svg>
