<?xml version="1.0" encoding="UTF-8"?>
<!DOCTYPE svg PUBLIC "-//W3C//DTD SVG 1.1//EN" "http://www.w3.org/Graphics/SVG/1.1/DTD/svg11.dtd">
<svg xmlns="http://www.w3.org/2000/svg" version="1.1" width="124px" height="36px" style="shape-rendering:geometricPrecision; text-rendering:geometricPrecision; image-rendering:optimizeQuality; fill-rule:evenodd; clip-rule:evenodd" xmlns:xlink="http://www.w3.org/1999/xlink">
<g><path style="opacity:0.561" fill="#c60009" d="M -0.5,28.5 C -0.5,27.8333 -0.5,27.1667 -0.5,26.5C 0.869876,26.1435 1.86988,25.3102 2.5,24C 0.366702,9.29052 6.70004,2.95718 21.5,5C 33.041,13.2721 33.3744,21.9388 22.5,31C 18.1667,31.6667 13.8333,31.6667 9.5,31C 7.69506,30.028 6.02839,28.8613 4.5,27.5C 2.92908,28.3094 1.26241,28.6427 -0.5,28.5 Z M 16.5,29.5 C 19.4328,27.3548 22.4328,25.1882 25.5,23C 23.7885,20.4807 21.4552,18.9807 18.5,18.5C 20.1513,17.0299 21.9847,15.6966 24,14.5C 23.7395,11.883 22.2395,10.0497 19.5,9C 16.1832,8.50166 12.8499,8.33499 9.5,8.5C 23.5126,4.67587 29.0126,10.0092 26,24.5C 23.7146,27.8922 20.548,29.5589 16.5,29.5 Z M 9.5,8.5 C 9.40594,12.1358 8.73927,15.6358 7.5,19C 8.16667,19.3333 8.83333,19.6667 9.5,20C 7.90952,21.0458 6.40952,22.2125 5,23.5C 2.92192,17.4876 4.42192,12.4876 9.5,8.5 Z M 12.5,17.5 C 12.289,11.9414 14.6223,10.4414 19.5,13C 17.4494,15.0202 15.1161,16.5202 12.5,17.5 Z M 14.5,21.5 C 15.1834,23.1765 16.5168,23.8432 18.5,23.5C 16.0117,25.2553 13.6784,27.2553 11.5,29.5C 9.83333,28.3333 8.16667,27.1667 6.5,26C 9.32887,24.6443 11.9955,23.1443 14.5,21.5 Z"/></g>
<g><path style="opacity:0.561" fill="#000000" d="M 37.5,12.5 C 40.5184,12.3354 43.5184,12.502 46.5,13C 48.1213,15.166 48.9546,17.666 49,20.5C 49.1858,18.0995 49.6858,15.7662 50.5,13.5C 54.0938,12.5741 57.7604,12.2408 61.5,12.5C 61.8333,16.5 62.1667,16.5 62.5,12.5C 63.5,12.5 64.5,12.5 65.5,12.5C 65.5,16.8333 65.5,21.1667 65.5,25.5C 63.8762,25.6399 62.7096,24.9733 62,23.5C 60.4747,24.7201 58.6413,25.3868 56.5,25.5C 53.9886,25.712 51.8219,25.0454 50,23.5C 49.5,24 49,24.5 48.5,25C 44.8333,25.6667 41.1667,25.6667 37.5,25C 36.1968,20.834 36.1968,16.6674 37.5,12.5 Z M 53.5,17.5 C 55.9479,16.5269 58.6146,16.1936 61.5,16.5C 61.5,18.5 61.5,20.5 61.5,22.5C 58.8127,22.6641 56.146,22.4974 53.5,22C 55.8098,21.5034 58.1432,21.3367 60.5,21.5C 60.5,20.1667 60.5,18.8333 60.5,17.5C 58.1667,17.5 55.8333,17.5 53.5,17.5 Z"/></g>
<g><path style="opacity:0.626" fill="#000000" d="M 69.5,12.5 C 72.5,12.5 75.5,12.5 78.5,12.5C 78.5,13.8333 78.5,15.1667 78.5,16.5C 75.5,16.5 72.5,16.5 69.5,16.5C 69.5,18.5 69.5,20.5 69.5,22.5C 71.5273,22.6621 73.5273,22.4955 75.5,22C 73.8659,21.5065 72.1992,21.3398 70.5,21.5C 70.5,20.1667 70.5,18.8333 70.5,17.5C 73.1667,17.5 75.8333,17.5 78.5,17.5C 78.5,20.1667 78.5,22.8333 78.5,25.5C 74.5633,25.7935 70.73,25.4601 67,24.5C 66.3333,21.1667 66.3333,17.8333 67,14.5C 67.9947,13.9341 68.828,13.2674 69.5,12.5 Z"/></g>
<g><path style="opacity:0.644" fill="#000000" d="M 83.5,12.5 C 92.5722,12.7736 94.9055,16.9403 90.5,25C 81.5131,27.676 78.0131,24.5093 80,15.5C 81.1451,14.3636 82.3117,13.3636 83.5,12.5 Z M 83.5,16.5 C 85.5,16.5 87.5,16.5 89.5,16.5C 90.3206,22.1581 88.154,23.8248 83,21.5C 82.3603,19.735 82.5269,18.0683 83.5,16.5 Z"/></g>
<g><path style="opacity:0.61" fill="#000000" d="M 94.5,12.5 C 97.41,14.2391 99.91,16.5724 102,19.5C 102.497,17.1902 102.663,14.8568 102.5,12.5C 103.833,12.5 105.167,12.5 106.5,12.5C 106.5,16.8333 106.5,21.1667 106.5,25.5C 102.73,24.2642 99.5635,21.9309 97,18.5C 96.5034,20.8098 96.3367,23.1432 96.5,25.5C 95.5,25.5 94.5,25.5 93.5,25.5C 93.2307,21.0685 93.564,16.7352 94.5,12.5 Z"/></g>
<g><path style="opacity:0.615" fill="#000000" d="M 107.5,12.5 C 108.5,12.5 109.5,12.5 110.5,12.5C 110.338,14.5273 110.505,16.5273 111,18.5C 113.207,15.436 116.041,13.436 119.5,12.5C 119.201,15.6421 117.534,17.8088 114.5,19C 116.351,20.6837 118.018,22.5171 119.5,24.5C 118.277,25.6139 116.944,25.7805 115.5,25C 114,23.5 112.5,22 111,20.5C 110.506,22.1341 110.34,23.8008 110.5,25.5C 109.5,25.5 108.5,25.5 107.5,25.5C 107.5,21.1667 107.5,16.8333 107.5,12.5 Z"/></g>
</svg>
